<svg width="93" height="93" viewBox="0 0 93 93" fill="none" xmlns="http://www.w3.org/2000/svg">
<path d="M88.3333 46.6667C88.3333 66.3083 88.3333 76.1296 82.2312 82.2312C76.1296 88.3333 66.3083 88.3333 46.6667 88.3333C27.0248 88.3333 17.2039 88.3333 11.102 82.2312C5 76.1296 5 66.3083 5 46.6667C5 27.0248 5 17.2039 11.102 11.102C17.2039 5 27.0248 5 46.6667 5C66.3083 5 76.1296 5 82.2312 11.102C86.2887 15.1592 87.6483 20.8606 88.1038 30" stroke="white" stroke-width="8.9375" stroke-linecap="round"/>
<path d="M47 25.2502C40.3724 25.2502 35 30.0072 35 35.8748C35 41.743 40.3724 46.5 47 46.5C53.6276 46.5 59 51.257 59 57.1252C59 62.993 53.6276 67.75 47 67.75M47 25.2502C53.6276 25.2502 59 30.0072 59 35.8748M47 25.2502V21M47 67.75V72M47 67.75C40.3724 67.75 35 62.993 35 57.1252" stroke="white" stroke-width="9.375" stroke-linecap="round"/>
</svg>
