<svg width="16" height="16" viewBox="0 0 16 16" fill="none" xmlns="http://www.w3.org/2000/svg">
<path d="M14.8543 6.54738C15.0332 6.00863 15.0951 5.43791 15.0358 4.87334C14.9765 4.30877 14.7974 3.76335 14.5105 3.27352C14.0851 2.53313 13.4357 1.94695 12.6557 1.59949C11.8757 1.25202 11.0055 1.16122 10.1706 1.34018C9.69631 0.812559 9.09149 0.419031 8.41694 0.199125C7.74239 -0.0207811 7.02185 -0.0593233 6.32769 0.0873693C5.63353 0.234062 4.99019 0.560825 4.46228 1.03484C3.93437 1.50885 3.54048 2.11343 3.32017 2.78785C2.76395 2.90191 2.23848 3.13338 1.77887 3.46678C1.31927 3.80018 0.936123 4.22784 0.655037 4.72118C0.22506 5.46033 0.0412907 6.31707 0.130297 7.16754C0.219304 8.01801 0.576474 8.81814 1.15017 9.45225C0.970613 9.99074 0.908119 10.5614 0.966869 11.1259C1.02562 11.6905 1.20426 12.2361 1.49084 12.7261C1.91673 13.4667 2.56678 14.053 3.34731 14.4005C4.12784 14.7479 4.99853 14.8386 5.8339 14.6595C6.21074 15.0838 6.67379 15.4229 7.19211 15.6541C7.71043 15.8852 8.27211 16.0032 8.83964 16C9.69539 16.0008 10.5293 15.7296 11.2209 15.2256C11.9125 14.7217 12.4261 14.011 12.6875 13.1961C13.2437 13.0819 13.7691 12.8503 14.2286 12.5169C14.6882 12.1835 15.0714 11.7559 15.3526 11.2627C15.7775 10.5247 15.9581 9.67113 15.8686 8.82422C15.7791 7.97731 15.4241 7.18032 14.8543 6.54738ZM8.83964 14.9528C8.13878 14.9539 7.4599 14.7082 6.92204 14.2589L7.01664 14.2053L10.2022 12.3665C10.2815 12.32 10.3473 12.2537 10.3932 12.1741C10.4391 12.0944 10.4635 12.0042 10.464 11.9123V7.42105L11.8106 8.20012C11.8173 8.20349 11.8231 8.20839 11.8275 8.21441C11.8319 8.22044 11.8348 8.22742 11.836 8.23478V11.9565C11.8343 12.7507 11.518 13.5118 10.9565 14.0734C10.3949 14.6349 9.63379 14.9511 8.83964 14.9528ZM2.39917 12.2025C2.04768 11.5956 1.92148 10.8842 2.04277 10.1934L2.13744 10.2502L5.3261 12.089C5.405 12.1353 5.49482 12.1597 5.5863 12.1597C5.67778 12.1597 5.7676 12.1353 5.8465 12.089L9.7417 9.84332V11.3983C9.74134 11.4063 9.73916 11.4142 9.73532 11.4213C9.73149 11.4284 9.72611 11.4345 9.71957 11.4393L6.49304 13.3001C5.80445 13.6968 4.9866 13.804 4.21904 13.5982C3.45148 13.3924 2.79696 12.8905 2.39917 12.2025ZM1.56024 5.26372C1.91416 4.6529 2.47279 4.187 3.13724 3.94852V7.73332C3.13604 7.82475 3.1594 7.91484 3.20489 7.99417C3.25037 8.0735 3.31632 8.13916 3.39584 8.18432L7.2721 10.4205L5.92537 11.1995C5.91808 11.2034 5.90996 11.2054 5.9017 11.2054C5.89345 11.2054 5.88533 11.2034 5.87804 11.1995L2.65784 9.34185C1.97054 8.94346 1.46914 8.28894 1.26341 7.52164C1.05769 6.75433 1.16442 5.93676 1.56024 5.24798V5.26372ZM12.6244 7.83425L8.73557 5.57598L10.0792 4.79998C10.0865 4.79611 10.0946 4.79409 10.1028 4.79409C10.1111 4.79409 10.1192 4.79611 10.1265 4.79998L13.3467 6.66085C13.8391 6.94495 14.2405 7.36326 14.504 7.86692C14.7676 8.37059 14.8824 8.93884 14.8351 9.50532C14.7878 10.0718 14.5804 10.6131 14.237 11.0661C13.8935 11.5191 13.4284 11.8651 12.8957 12.0637V8.27885C12.8929 8.18757 12.8664 8.09858 12.8189 8.02062C12.7713 7.94266 12.7043 7.87848 12.6244 7.83425ZM13.9649 5.81885L13.8702 5.76205L10.6879 3.90752C10.6085 3.86093 10.5181 3.83637 10.4261 3.83637C10.3341 3.83637 10.2437 3.86093 10.1643 3.90752L6.27237 6.15312V4.59825C6.27154 4.59034 6.27286 4.58236 6.2762 4.57515C6.27953 4.56793 6.28475 4.56175 6.2913 4.55725L9.5115 2.69952C10.005 2.4152 10.5693 2.27728 11.1384 2.30189C11.7074 2.3265 12.2577 2.51263 12.7249 2.83851C13.192 3.16438 13.5567 3.61653 13.7763 4.14207C13.9959 4.66761 14.0614 5.24482 13.965 5.80618L13.9649 5.81885ZM5.53737 8.57532L4.1907 7.79945C4.18397 7.79539 4.1782 7.7899 4.17383 7.78337C4.16945 7.77684 4.16656 7.76942 4.16537 7.76165V4.04945C4.16611 3.47997 4.32896 2.92246 4.63487 2.44212C4.94078 1.96177 5.37712 1.57844 5.89286 1.33694C6.40861 1.09544 6.98244 1.00576 7.54728 1.07837C8.11212 1.15098 8.64461 1.38289 9.0825 1.74698L8.98784 1.80065L5.80237 3.63932C5.72309 3.68582 5.65726 3.75214 5.61136 3.83177C5.56546 3.9114 5.54107 4.00161 5.54057 4.09352L5.53737 8.57532ZM6.2691 6.99838L8.00377 5.99852L9.7417 6.99838V8.99798L8.0101 9.99778L6.2723 8.99798L6.2691 6.99838Z" fill="#E4E4E7"/>
</svg>
