<svg width="18" height="18" viewBox="0 0 18 18" fill="none" xmlns="http://www.w3.org/2000/svg">
<path d="M9.0002 13.8C6.34923 13.8 4.2002 11.6509 4.2002 8.99995C4.2002 7.57835 4.8182 6.3011 5.8002 5.42218C6.6494 4.66212 7.77084 4.19995 9.0002 4.19995C11.6512 4.19995 13.8002 6.34898 13.8002 8.99995C13.8002 9.57715 13.6983 10.1306 13.5116 10.6432C13.4443 10.828 13.3262 10.9888 13.1816 11.1221L13.1172 11.1816C12.673 11.5914 12.006 11.6439 11.5032 11.3086C11.139 11.0658 10.9202 10.657 10.9202 10.2192V8.99995M10.9202 8.99995C10.9202 10.0604 10.0606 10.92 9.0002 10.92C7.9398 10.92 7.0802 10.0604 7.0802 8.99995C7.0802 7.93955 7.9398 7.07995 9.0002 7.07995C10.0606 7.07995 10.9202 7.93955 10.9202 8.99995Z" stroke="#E4E4E7" stroke-width="1.2" stroke-linecap="round"/>
<path d="M17 9C17 12.7712 17 14.6569 15.8284 15.8284C14.6569 17 12.7712 17 9 17C5.22876 17 3.34314 17 2.17158 15.8284C1 14.6569 1 12.7712 1 9C1 5.22876 1 3.34314 2.17158 2.17158C3.34314 1 5.22876 1 9 1C12.7712 1 14.6569 1 15.8284 2.17158C16.6074 2.95057 16.8685 4.04524 16.9559 5.8" stroke="#E4E4E7" stroke-width="1.2" stroke-linecap="round"/>
</svg>
