<svg width="31" height="31" viewBox="0 0 31 31" fill="none" xmlns="http://www.w3.org/2000/svg">
<path d="M3.16667 16.0002H1.625V9.66691C1.625 7.91801 3.00545 6.50024 4.70833 6.50024H10.875M3.16667 16.0002V25.5002C3.16667 27.2492 4.54712 28.6669 6.25 28.6669H24.75C26.4529 28.6669 27.8333 27.2492 27.8333 25.5002V16.0002M3.16667 16.0002H12.4167M10.875 6.50024V4.91691C10.875 3.16801 12.2555 1.75024 13.9583 1.75024H17.0417C18.7446 1.75024 20.125 3.16801 20.125 4.91691V6.50024M10.875 6.50024H20.125M27.8333 16.0002H29.375V9.66691C29.375 7.91801 27.9946 6.50024 26.2917 6.50024H20.125M27.8333 16.0002H18.5833M12.4167 16.0002V12.8336H18.5833V16.0002M12.4167 16.0002V19.1669H18.5833V16.0002" stroke="#1C274C" stroke-width="2.91793" stroke-linecap="round" stroke-linejoin="round"/>
</svg>
