<svg width="28" height="28" viewBox="0 0 28 28" fill="none" xmlns="http://www.w3.org/2000/svg">
<path d="M22.75 9C24.8211 9 26.5 7.32107 26.5 5.25C26.5 3.17893 24.8211 1.5 22.75 1.5C20.6789 1.5 19 3.17893 19 5.25C19 7.32107 20.6789 9 22.75 9Z" stroke="#09090B" stroke-width="2"/>
<path d="M7.75 16.5H19" stroke="#09090B" stroke-width="2" stroke-linecap="round"/>
<path d="M7.75 20.875H15.25" stroke="#09090B" stroke-width="2" stroke-linecap="round"/>
<path d="M1.5 14C1.5 19.8925 1.5 22.8389 3.33059 24.6694C5.16116 26.5 8.10744 26.5 14 26.5C19.8925 26.5 22.8389 26.5 24.6694 24.6694C26.5 22.8389 26.5 19.8925 26.5 14V12.125M15.875 1.5H14C8.10744 1.5 5.16116 1.5 3.33059 3.33059C2.11341 4.54776 1.70555 6.25819 1.56887 9" stroke="#09090B" stroke-width="2" stroke-linecap="round"/>
</svg>
