<svg width="100" height="100" viewBox="0 0 100 100" fill="none" xmlns="http://www.w3.org/2000/svg">
<path d="M29.167 75V37.5" stroke="white" stroke-width="8.9375" stroke-linecap="round"/>
<path d="M50 75V25" stroke="white" stroke-width="8.9375" stroke-linecap="round"/>
<path d="M70.833 75.0003V54.167" stroke="white" stroke-width="8.9375" stroke-linecap="round"/>
<path d="M91.6663 49.9997C91.6663 69.6413 91.6663 79.4626 85.5643 85.5643C79.4626 91.6663 69.6413 91.6663 49.9997 91.6663C30.3578 91.6663 20.5369 91.6663 14.435 85.5643C8.33301 79.4626 8.33301 69.6413 8.33301 49.9997C8.33301 30.3578 8.33301 20.5369 14.435 14.435C20.5369 8.33301 30.3578 8.33301 49.9997 8.33301C69.6413 8.33301 79.4626 8.33301 85.5643 14.435C89.6218 18.4922 90.9813 24.1936 91.4368 33.333" stroke="white" stroke-width="8.9375" stroke-linecap="round"/>
</svg>
