<svg width="11" height="13" viewBox="0 0 11 13" fill="none" xmlns="http://www.w3.org/2000/svg">
<path d="M1.00476 1.71986C1.00476 1.3229 1.32656 1.0011 1.72352 1.0011H8.32435C8.72131 1.0011 9.04311 1.3229 9.04311 1.71986V5.50434C9.04311 5.78179 9.26804 6.00672 9.54549 6.00672V6.00672C9.82295 6.00672 10.0479 5.78179 10.0479 5.50434V0.718764C10.0479 0.321802 9.72607 0 9.32911 0H0.718764C0.321801 0 0 0.321802 0 0.718764V11.2948C0 11.6918 0.321802 12.0136 0.718764 12.0136H5.02577C5.30221 12.0136 5.52632 11.7895 5.52632 11.513V11.513C5.52632 11.2366 5.30221 11.0125 5.02577 11.0125H1.72352C1.32656 11.0125 1.00476 10.6907 1.00476 10.2937V1.71986Z" fill="white"/>
<path d="M2.00977 2.5025C2.00977 2.22606 2.23387 2.00195 2.51031 2.00195H7.53805C7.8145 2.00195 8.0386 2.22606 8.0386 2.5025V2.5025C8.0386 2.77895 7.8145 3.00305 7.53805 3.00305H2.51031C2.23387 3.00305 2.00977 2.77895 2.00977 2.5025V2.5025ZM2.00977 4.50483C2.00977 4.22839 2.23387 4.00428 2.51031 4.00428H6.53316C6.8096 4.00428 7.0337 4.22839 7.0337 4.50483V4.50483C7.0337 4.78128 6.8096 5.00538 6.53315 5.00538H2.51031C2.23387 5.00538 2.00977 4.78128 2.00977 4.50483V4.50483ZM2.00977 6.50702C2.00977 6.23058 2.23387 6.00648 2.51031 6.00648H4.52364C4.80008 6.00648 5.02418 6.23058 5.02418 6.50702V6.50702C5.02418 6.78347 4.80008 7.00757 4.52364 7.00757H2.51031C2.23387 7.00757 2.00977 6.78347 2.00977 6.50702V6.50702Z" fill="white"/>
</svg>
