<svg width="21" height="16" viewBox="0 0 21 16" fill="none" xmlns="http://www.w3.org/2000/svg">
<path d="M6.18282 10.4785C8.49293 10.4785 10.3656 8.69491 10.3656 6.49481C10.3656 4.29471 8.49293 2.51117 6.18282 2.51117C3.87271 2.51117 2 4.29471 2 6.49481C2 8.69491 3.87271 10.4785 6.18282 10.4785Z" fill="#CC0000"/>
<path opacity="0.15" d="M14.7618 15.0468C16.3057 15.0468 17.7864 14.4627 18.8781 13.423C19.9698 12.3833 20.5832 10.9731 20.5832 9.5027C20.5832 8.03231 19.9698 6.62214 18.8781 5.58242C17.7864 4.5427 16.3057 3.95859 14.7618 3.95859H6.23831C4.6944 3.95859 3.21373 4.5427 2.12202 5.58242C1.03031 6.62214 0.416992 8.03231 0.416992 9.5027C0.416992 10.9731 1.03031 12.3833 2.12202 13.423C3.21373 14.4627 4.6944 15.0468 6.23831 15.0468H14.7618Z" stroke="black" stroke-width="0.794134" stroke-miterlimit="10" stroke-linecap="round"/>
<path d="M14.7618 12.0396C16.3057 12.0396 17.7864 11.4554 18.8781 10.4157C19.9698 9.376 20.5832 7.96583 20.5832 6.49544C20.5832 5.02505 19.9698 3.61488 18.8781 2.57516C17.7864 1.53543 16.3057 0.951325 14.7618 0.951324H6.23831C5.47385 0.951324 4.71686 1.09473 4.01059 1.37335C3.30431 1.65196 2.66258 2.06034 2.12202 2.57516C1.58146 3.08998 1.15266 3.70115 0.860114 4.3738C0.567566 5.04644 0.416992 5.76738 0.416992 6.49544C0.416992 7.2235 0.567566 7.94444 0.860114 8.61708C1.15266 9.28972 1.58146 9.9009 2.12202 10.4157C2.66258 10.9305 3.30431 11.3389 4.01059 11.6175C4.71686 11.8961 5.47385 12.0396 6.23831 12.0396H14.7618Z" stroke="black" stroke-width="0.794134" stroke-miterlimit="10"/>
</svg>
