<svg width="93" height="93" viewBox="0 0 93 93" fill="none" xmlns="http://www.w3.org/2000/svg">
<path d="M49.1878 48.7961C49.1878 51.5153 50.3754 54.0742 52.5289 55.997C54.6824 57.9198 57.5484 58.9801 60.5939 58.9801C63.6393 58.9801 66.5054 57.9198 68.6589 55.997C70.8176 54.0742 72 51.52 72 48.7961C72 47.1514 71.5514 45.5208 70.7016 44.0741L62.9268 29.8183H64.2305C64.9589 29.8183 65.55 29.2905 65.55 28.6401V26.6749C65.55 26.0246 64.9589 25.4968 64.2305 25.4968H54.3023C54.0595 23.5457 50.8029 22 46.8179 22C42.8329 22 39.5763 23.5457 39.3334 25.4968H29.4053C28.6769 25.4968 28.0857 26.0246 28.0857 26.6749V28.6401C28.0857 29.2905 28.6769 29.8183 29.4053 29.8183H31.0732L23.2984 44.074C22.4486 45.5208 22 47.1561 22 48.7961C22 51.5153 23.1876 54.0742 25.3411 55.997C27.4946 57.9198 30.3606 58.9801 33.4061 58.9801C36.4516 58.9801 39.3176 57.9198 41.4711 55.997C43.6299 54.0742 44.8175 51.52 44.8175 48.7961C44.8175 47.1514 44.3688 45.5208 43.5191 44.0741L35.739 29.8183H58.2662L50.4862 44.0741C49.6364 45.5208 49.1878 47.1561 49.1878 48.7961ZM40.6794 45.3323L40.7005 45.3747C41.3286 46.4398 41.6453 47.5896 41.6453 48.8007H25.1669C25.1669 47.5896 25.4836 46.4397 26.1117 45.3747L26.1222 45.3559L33.4061 32.0097L40.6794 45.3323ZM53.2995 45.3747L53.31 45.3559L60.5939 32.0097L67.8672 45.337L67.8883 45.3794C68.5164 46.4445 68.8331 47.5944 68.8331 48.8056H52.3547C52.3547 47.5896 52.6714 46.435 53.2995 45.3747Z" fill="white"/>
<path d="M88.3333 46.6667C88.3333 66.3083 88.3333 76.1296 82.2312 82.2312C76.1296 88.3333 66.3083 88.3333 46.6667 88.3333C27.0248 88.3333 17.2039 88.3333 11.102 82.2312C5 76.1296 5 66.3083 5 46.6667C5 27.0248 5 17.2039 11.102 11.102C17.2039 5 27.0248 5 46.6667 5C66.3083 5 76.1296 5 82.2312 11.102C86.2887 15.1592 87.6483 20.8606 88.1037 30" stroke="white" stroke-width="8.9375" stroke-linecap="round"/>
<path d="M47 26L47 72" stroke="white" stroke-width="3" stroke-linecap="round"/>
<path d="M34 72H59" stroke="white" stroke-width="3" stroke-linecap="round"/>
</svg>
