<svg width="126" height="126" viewBox="0 0 126 126" fill="none" xmlns="http://www.w3.org/2000/svg">
<circle cx="62.575" cy="62.575" r="62.575" fill="#E6533C" fill-opacity="0.2"/>
<path fill-rule="evenodd" clip-rule="evenodd" d="M109.359 62.0951C109.359 87.9862 88.3698 108.975 62.4788 108.975C36.5877 108.975 15.5989 87.9862 15.5989 62.0951C15.5989 36.2041 36.5877 15.2153 62.4788 15.2153C88.3698 15.2153 109.359 36.2041 109.359 62.0951ZM44.2467 80.3272C43.3314 79.4118 43.3314 77.9279 44.2467 77.0123L59.1639 62.0954L44.2467 47.1782C43.3314 46.2627 43.3314 44.7787 44.2467 43.8631C45.1621 42.9478 46.6463 42.9478 47.5616 43.8631L62.4788 58.7803L77.3959 43.8634C78.3112 42.948 79.7954 42.948 80.7108 43.8634C81.6261 44.7787 81.6261 46.2629 80.7108 47.1782L65.7936 62.0954L80.7108 77.0123C81.6261 77.9276 81.6261 79.4118 80.7108 80.3272C79.7952 81.2425 78.3112 81.2425 77.3959 80.3272L62.4788 65.4103L47.5618 80.3272C46.6463 81.2427 45.1623 81.2427 44.2467 80.3272Z" fill="#E6533C"/>
</svg>
