<svg width="129" height="129" viewBox="0 0 129 129" fill="none" xmlns="http://www.w3.org/2000/svg">
<circle cx="64.2161" cy="64.216" r="64.0739" fill="#8E54E9" fill-opacity="0.2"/>
<path fill-rule="evenodd" clip-rule="evenodd" d="M111.285 63.4557C111.285 89.6494 90.0504 110.884 63.8567 110.884C37.663 110.884 16.4288 89.6494 16.4288 63.4557C16.4288 37.262 37.663 16.0278 63.8567 16.0278C90.0504 16.0278 111.285 37.262 111.285 63.4557ZM37.7714 63.4557C37.7714 62.146 38.8331 61.0843 40.1428 61.0843H61.4853V39.7418C61.4853 38.4321 62.547 37.3704 63.8567 37.3704C65.1664 37.3704 66.2281 38.4321 66.2281 39.7418V61.0843H87.5707C88.8804 61.0843 89.9421 62.146 89.9421 63.4557C89.9421 64.7654 88.8804 65.8271 87.5707 65.8271H66.2281V87.1697C66.2281 88.4794 65.1664 89.5411 63.8567 89.5411C62.547 89.5411 61.4853 88.4794 61.4853 87.1697V65.8271H40.1428C38.8331 65.8271 37.7714 64.7654 37.7714 63.4557Z" fill="#8E54E9"/>
</svg>
