<svg width="22" height="22" viewBox="0 0 22 22" fill="none" xmlns="http://www.w3.org/2000/svg">
<path d="M8 15C9 15 9.8846 15 11 15C12.1154 15 13 15 14 15" stroke="#A1A1AA" stroke-width="2" stroke-linecap="round"/>
<path d="M15 9.5C15 10.3284 14.5523 11 14 11C13.4477 11 13 10.3284 13 9.5C13 8.67157 13.4477 8 14 8C14.5523 8 15 8.67157 15 9.5Z" fill="#A1A1AA"/>
<path d="M8 11C8.55228 11 9 10.3284 9 9.5C9 8.67157 8.55228 8 8 8C7.44772 8 7 8.67157 7 9.5C7 10.3284 7.44772 11 8 11Z" fill="#A1A1AA"/>
<path d="M6 2.33782C7.47087 1.48697 9.1786 1 11 1C16.5228 1 21 5.47715 21 11C21 16.5228 16.5228 21 11 21C5.47715 21 1 16.5228 1 11C1 9.1786 1.48697 7.47087 2.33782 6" stroke="#A1A1AA" stroke-width="2" stroke-linecap="round"/>
</svg>
