<svg width="33" height="32" viewBox="0 0 33 32" fill="none" xmlns="http://www.w3.org/2000/svg">
<path d="M16.4883 19V24.6667" stroke="#075985" stroke-width="2.5" stroke-linecap="round"/>
<path d="M7.7959 13.3333V10.5C7.7959 10.0173 7.83705 9.54405 7.9161 9.08333M25.1823 13.3333V10.5C25.1823 5.80558 21.2902 2 16.4891 2C13.8927 2 11.5621 3.11298 9.96919 4.87762" stroke="#075985" stroke-width="2.5" stroke-linecap="round"/>
<path d="M15.0398 30.3334H10.6932C6.59517 30.3334 4.54618 30.3334 3.27309 29.0885C2 27.8437 2 25.8403 2 21.8334C2 17.8265 2 15.823 3.27309 14.5782C4.54618 13.3334 6.59517 13.3334 10.6932 13.3334H22.2841C26.3821 13.3334 28.431 13.3334 29.7042 14.5782C30.9773 15.823 30.9773 17.8265 30.9773 21.8334C30.9773 25.8403 30.9773 27.8437 29.7042 29.0885C28.431 30.3334 26.3821 30.3334 22.2841 30.3334H20.8352" stroke="#075985" stroke-width="2.5" stroke-linecap="round"/>
</svg>
