<svg width="14" height="15" viewBox="0 0 14 15" fill="none" xmlns="http://www.w3.org/2000/svg">
<path d="M4.22872 13.1319C5.5812 13.9329 6.25747 14.3333 7 14.3333C7.74253 14.3333 8.4188 13.9329 9.77127 13.1319L10.2287 12.861C11.5812 12.0601 12.2575 11.6596 12.6287 11C13 10.3404 13 9.53947 13 7.93753M12.8765 5C12.8217 4.75173 12.7427 4.53587 12.6287 4.33333C12.2575 3.67371 11.5812 3.27325 10.2287 2.47231L9.77127 2.20141C8.4188 1.40047 7.74253 1 7 1C6.25747 1 5.5812 1.40047 4.22872 2.20141L3.77128 2.47231C2.4188 3.27325 1.74256 3.67371 1.37128 4.33333C1 4.99295 1 5.79389 1 7.3958V7.93753C1 9.53947 1 10.3404 1.37128 11C1.52217 11.2681 1.72344 11.4933 2 11.7201" stroke="#E4E4E7" stroke-width="1.2" stroke-linecap="round"/>
<path d="M7 9.66663C8.10457 9.66663 9 8.7712 9 7.66663C9 6.56206 8.10457 5.66663 7 5.66663C5.89543 5.66663 5 6.56206 5 7.66663C5 8.7712 5.89543 9.66663 7 9.66663Z" stroke="#E4E4E7" stroke-width="1.2"/>
</svg>
