<svg width="126" height="126" viewBox="0 0 126 126" fill="none" xmlns="http://www.w3.org/2000/svg">
<circle cx="62.575" cy="62.575" r="62.575" fill="#26BF94" fill-opacity="0.2"/>
<path fill-rule="evenodd" clip-rule="evenodd" d="M109.847 62.5762C109.847 88.4646 88.8605 109.451 62.9721 109.451C37.0837 109.451 16.097 88.4646 16.097 62.5762C16.097 36.6878 37.0837 15.7012 62.9721 15.7012C88.8605 15.7012 109.847 36.6878 109.847 62.5762ZM37.1908 62.5762C37.1908 61.2818 38.2401 60.2325 39.5346 60.2325H60.6284V39.1387C60.6284 37.8443 61.6777 36.795 62.9721 36.795C64.2666 36.795 65.3159 37.8443 65.3159 39.1387V60.2325H86.4096C87.7041 60.2325 88.7534 61.2818 88.7534 62.5762C88.7534 63.8707 87.7041 64.92 86.4096 64.92H65.3159V86.0138C65.3159 87.3082 64.2666 88.3575 62.9721 88.3575C61.6777 88.3575 60.6284 87.3082 60.6284 86.0138V64.92H39.5346C38.2401 64.92 37.1908 63.8707 37.1908 62.5762Z" fill="#26BF94"/>
<path fill-rule="evenodd" clip-rule="evenodd" d="M62.9721 104.764C86.2716 104.764 105.16 85.8757 105.16 62.5762C105.16 39.2768 86.2716 20.3887 62.9721 20.3887C39.6726 20.3887 20.7846 39.2768 20.7846 62.5762C20.7846 85.8757 39.6726 104.764 62.9721 104.764ZM32.5033 62.5762C32.5033 58.6929 35.6512 55.545 39.5346 55.545H55.9409V39.1387C55.9409 35.2553 59.0887 32.1074 62.9721 32.1074C66.8555 32.1074 70.0034 35.2553 70.0034 39.1387V55.545H86.4096C90.293 55.545 93.4409 58.6929 93.4409 62.5762C93.4409 66.4596 90.293 69.6075 86.4096 69.6075H70.0034V86.0138C70.0034 89.8971 66.8555 93.045 62.9721 93.045C59.0887 93.045 55.9409 89.8971 55.9409 86.0138V69.6075H39.5346C35.6512 69.6075 32.5033 66.4596 32.5033 62.5762ZM39.5346 60.2325C38.2401 60.2325 37.1908 61.2818 37.1908 62.5762C37.1908 63.8707 38.2401 64.92 39.5346 64.92H60.6284V86.0138C60.6284 87.3082 61.6777 88.3575 62.9721 88.3575C64.2666 88.3575 65.3159 87.3082 65.3159 86.0138V64.92H86.4096C87.7041 64.92 88.7534 63.8707 88.7534 62.5762C88.7534 61.2818 87.7041 60.2325 86.4096 60.2325H65.3159V39.1387C65.3159 37.8443 64.2666 36.795 62.9721 36.795C61.6777 36.795 60.6284 37.8443 60.6284 39.1387V60.2325H39.5346ZM62.9721 109.451C88.8605 109.451 109.847 88.4646 109.847 62.5762C109.847 36.6878 88.8605 15.7012 62.9721 15.7012C37.0837 15.7012 16.097 36.6878 16.097 62.5762C16.097 88.4646 37.0837 109.451 62.9721 109.451Z" fill="#26BF94"/>
</svg>
