<svg width="100" height="100" viewBox="0 0 100 100" fill="none" xmlns="http://www.w3.org/2000/svg">
<path d="M87.3542 29.1668C87.0304 21.3656 85.9858 16.5825 82.6183 13.215C77.7371 8.3335 69.88 8.3335 54.1667 8.3335H45.8333C30.1198 8.3335 22.2631 8.3335 17.3815 13.215C12.5 18.0966 12.5 25.9533 12.5 41.6668V58.3335C12.5 74.0468 12.5 81.9039 17.3815 86.7852C22.2631 91.6668 30.1198 91.6668 45.8333 91.6668H54.1667C69.88 91.6668 77.7371 91.6668 82.6183 86.7852C87.5 81.9039 87.5 74.0468 87.5 58.3335V45.8335" stroke="white" stroke-width="6.25" stroke-linecap="round"/>
<path d="M25 50C25 44.1075 25 41.1612 26.8306 39.3306C28.6612 37.5 31.6075 37.5 37.5 37.5H62.5C68.3925 37.5 71.3387 37.5 73.1696 39.3306C75 41.1612 75 44.1075 75 50V66.6667C75 72.5592 75 75.5054 73.1696 77.3362C71.3387 79.1667 68.3925 79.1667 62.5 79.1667H37.5C31.6075 79.1667 28.6612 79.1667 26.8306 77.3362C25 75.5054 25 72.5592 25 66.6667V50Z" stroke="white" stroke-width="6.25"/>
<path d="M29.167 25H50.0003" stroke="white" stroke-width="6.25" stroke-linecap="round"/>
</svg>
