<svg width="15" height="15" viewBox="0 0 15 15" fill="none" xmlns="http://www.w3.org/2000/svg">
<path d="M7 4.33337L5 11" stroke="#E4E4E7" stroke-linecap="round" stroke-linejoin="round"/>
<path d="M10.333 4.33337L8.33301 11" stroke="#E4E4E7" stroke-linecap="round" stroke-linejoin="round"/>
<path d="M11.6663 6.33337H4.33301" stroke="#E4E4E7" stroke-linecap="round" stroke-linejoin="round"/>
<path d="M11.0003 9H3.66699" stroke="#E4E4E7" stroke-linecap="round" stroke-linejoin="round"/>
<path d="M14.3333 7.66667C14.3333 10.8093 14.3333 12.3807 13.357 13.357C12.3807 14.3333 10.8093 14.3333 7.66667 14.3333C4.52397 14.3333 2.95262 14.3333 1.97631 13.357C1 12.3807 1 10.8093 1 7.66667C1 4.52397 1 2.95262 1.97631 1.97631C2.95262 1 4.52397 1 7.66667 1C10.8093 1 12.3807 1 13.357 1.97631C14.0062 2.62547 14.2237 3.5377 14.2966 5" stroke="#E4E4E7" stroke-linecap="round"/>
</svg>
