<svg width="16" height="16" viewBox="0 0 16 16" fill="none" xmlns="http://www.w3.org/2000/svg">
<path fill-rule="evenodd" clip-rule="evenodd" d="M5.20898 5.76738C5.20898 4.22612 6.45842 2.97668 7.99968 2.97668C9.54097 2.97668 10.7904 4.22612 10.7904 5.76738C10.7904 7.30867 9.54097 8.55808 7.99968 8.55808C6.45842 8.55808 5.20898 7.30867 5.20898 5.76738ZM7.99968 4.09296C7.07496 4.09296 6.32526 4.84263 6.32526 5.76738C6.32526 6.69211 7.07496 7.4418 7.99968 7.4418C8.92441 7.4418 9.6741 6.69211 9.6741 5.76738C9.6741 4.84263 8.92441 4.09296 7.99968 4.09296Z" fill="#E2E8F0"/>
<path fill-rule="evenodd" clip-rule="evenodd" d="M0 8C0 3.58172 3.58172 0 8 0C12.4183 0 16 3.58172 16 8C16 12.4183 12.4183 16 8 16C3.58172 16 0 12.4183 0 8ZM8 1.11628C4.19823 1.11628 1.11628 4.19823 1.11628 8C1.11628 9.8944 1.8815 11.61 3.1197 12.8547C3.25395 12.1305 3.51772 11.4477 4.04716 10.8987C4.83908 10.0774 6.10542 9.67442 8 9.67442C9.89447 9.67442 11.1609 10.0774 11.9527 10.8987C12.4822 11.4477 12.746 12.1306 12.8802 12.8548C14.1185 11.6101 14.8837 9.8944 14.8837 8C14.8837 4.19823 11.8017 1.11628 8 1.11628ZM11.8651 13.697C11.7892 12.7952 11.5934 12.1342 11.1492 11.6735C10.6659 11.1723 9.77034 10.7907 8 10.7907C6.22957 10.7907 5.33404 11.1723 4.85072 11.6735C4.40653 12.1342 4.21069 12.7951 4.13486 13.697C5.23672 14.446 6.56722 14.8837 8 14.8837C9.43271 14.8837 10.7632 14.446 11.8651 13.697Z" fill="#E2E8F0"/>
</svg>
