<svg width="35" height="35" viewBox="0 0 35 35" fill="none" xmlns="http://www.w3.org/2000/svg">
<path fill-rule="evenodd" clip-rule="evenodd" d="M11.3954 12.6162C11.3954 9.24472 14.1285 6.51158 17.5 6.51158C20.8716 6.51158 23.6047 9.24472 23.6047 12.6162C23.6047 15.9878 20.8716 18.7209 17.5 18.7209C14.1285 18.7209 11.3954 15.9878 11.3954 12.6162ZM17.5 8.95344C15.4772 8.95344 13.8372 10.5933 13.8372 12.6162C13.8372 14.6391 15.4772 16.279 17.5 16.279C19.5229 16.279 21.1628 14.6391 21.1628 12.6162C21.1628 10.5933 19.5229 8.95344 17.5 8.95344Z" fill="#989898"/>
<path fill-rule="evenodd" clip-rule="evenodd" d="M0 17.5C0 7.83502 7.83502 0 17.5 0C27.165 0 35 7.83502 35 17.5C35 27.165 27.165 35 17.5 35C7.83502 35 0 27.165 0 17.5ZM17.5 2.44186C9.18362 2.44186 2.44186 9.18362 2.44186 17.5C2.44186 21.644 4.11579 25.397 6.82435 28.1197C7.11802 26.5355 7.69502 25.0419 8.85316 23.8409C10.5855 22.0443 13.3556 21.1628 17.5 21.1628C21.6442 21.1628 24.4144 22.0443 26.1466 23.8409C27.3049 25.0419 27.8818 26.5357 28.1755 28.1198C30.8842 25.3971 32.5581 21.644 32.5581 17.5C32.5581 9.18362 25.8163 2.44186 17.5 2.44186ZM25.9549 29.9623C25.789 27.9894 25.3605 26.5435 24.389 25.5358C23.3317 24.4394 21.3726 23.6047 17.5 23.6047C13.6272 23.6047 11.6682 24.4394 10.6109 25.5358C9.63928 26.5435 9.21088 27.9893 9.04501 29.9621C11.4553 31.6006 14.3658 32.5581 17.5 32.5581C20.634 32.5581 23.5446 31.6006 25.9549 29.9623Z" fill="#989898"/>
</svg>
