<svg width="157" height="52" viewBox="0 0 157 52" fill="none" xmlns="http://www.w3.org/2000/svg">
<path d="M1.58361 1.1453V1.1453C6.17538 3.4412 10.1096 6.86457 13.018 11.095L14.084 12.6455L18.0874 18.8325C19.0778 20.3633 20.3225 21.7136 21.7676 22.8252L23.5884 24.2258C25.2066 25.4706 27.1909 26.1455 29.2325 26.1455V26.1455C30.4547 26.1455 31.6648 25.9035 32.793 25.4334L37.084 23.6455L42.6825 20.6596C43.946 19.9858 45.2826 19.4592 46.6662 19.0902L48.9269 18.4874C50.9864 17.9382 53.1616 18.0047 55.1837 18.6787V18.6787C57.0806 19.3111 58.7672 20.4529 60.0588 21.9793L63.584 26.1455L68.084 33.1455L71.6076 37.6301C72.9062 39.2829 74.5827 40.5995 76.4962 41.4692V41.4692C78.2016 42.2444 80.0532 42.6455 81.9266 42.6455L82.0261 42.6455C84.3587 42.6455 86.6519 42.0448 88.685 40.9012L93.584 38.1455L98.3056 36.1782C99.1558 35.8239 100.039 35.5545 100.942 35.3739V35.3739C103.329 34.8966 105.799 35.0504 108.108 35.82L108.554 35.969C110.876 36.7427 112.985 38.0462 114.715 39.7762L118.584 43.6455L122.94 47.639C124.028 48.6362 125.277 49.4424 126.633 50.0238L127.284 50.3025C127.815 50.5303 128.372 50.6936 128.943 50.7887V50.7887C130.339 51.0214 131.774 50.839 133.068 50.2639L133.653 50.0037C134.924 49.4387 136.054 48.5974 136.959 47.5411L138.584 45.6455L143.084 39.1455L146.084 35.1455L149.584 31.1455L155.755 24.9977" stroke="#9673E4" stroke-width="2" stroke-linecap="round"/>
</svg>
