<svg width="158" height="52" viewBox="0 0 158 52" fill="none" xmlns="http://www.w3.org/2000/svg">
<path d="M1.803 39.5007L15.6214 35.6623C18.3964 34.8915 21.2631 34.5007 24.1432 34.5007V34.5007C28.8576 34.5007 33.5132 33.4538 37.7738 31.4357L38.4605 31.1104C40.0201 30.3716 41.632 29.7485 43.283 29.246L49.6188 27.3177C51.3829 26.7808 53.2496 26.6727 55.0638 27.0024V27.0024C58.3894 27.6068 61.2853 29.6334 62.9923 32.5509L65.3031 36.5007L72.6211 47.2625C73.3962 48.4023 74.4504 49.3244 75.6833 49.9408V49.9408C78.2364 51.2173 81.2741 51.049 83.6706 49.4983L86.4227 47.7175C87.6682 46.9116 88.7756 45.9102 89.7023 44.7517L94.9156 38.2353C95.8383 37.0819 96.8748 36.0243 98.0094 35.0786L99.1622 34.1179C101.223 32.4002 103.68 31.2249 106.311 30.6988V30.6988C108.611 30.239 110.782 29.2822 112.673 27.8953L117.302 24.5007L121.028 22.3438C124.856 20.1275 128.994 18.4949 133.304 17.5V17.5L134.328 17.1059C137.914 15.7268 141.068 13.419 143.468 10.4192V10.4192C145.014 8.48733 146.879 6.83448 148.982 5.53231L156.304 1" stroke="#9673E4" stroke-width="2" stroke-linecap="round"/>
</svg>
