<svg width="19" height="19" viewBox="0 0 19 19" fill="none" xmlns="http://www.w3.org/2000/svg">
<path d="M12.3342 9.5C12.3342 11.0675 11.0676 12.3342 9.50006 12.3342C7.93256 12.3342 6.66589 11.0675 6.66589 9.5C6.66589 7.9325 7.93256 6.66583 9.50006 6.66583C11.0676 6.66583 12.3342 7.9325 12.3342 9.5Z" stroke="#EB4956" stroke-width="1.5" stroke-linecap="round" stroke-linejoin="round"/>
<path d="M9.5 16.0471C12.2946 16.0471 14.8992 14.4004 16.7121 11.5504C17.4246 10.4342 17.4246 8.55792 16.7121 7.44167C14.8992 4.59167 12.2946 2.94501 9.5 2.94501C6.70541 2.94501 4.10083 4.59167 2.28791 7.44167C1.57542 8.55792 1.57542 10.4342 2.28791 11.5504C4.10083 14.4004 6.70541 16.0471 9.5 16.0471Z" stroke="#EB4956" stroke-width="1.5" stroke-linecap="round" stroke-linejoin="round"/>
</svg>
