<svg width="163" height="34" viewBox="0 0 163 34" fill="none" xmlns="http://www.w3.org/2000/svg">
<path fill-rule="evenodd" clip-rule="evenodd" d="M76.7802 33.2247V0.11084L73.6162 4.09684V33.2247H76.7802ZM74.0094 4.24443L76.3871 1.249V32.8148H76.387V1.24925L74.0094 4.24459V4.24443Z" fill="white"/>
<path fill-rule="evenodd" clip-rule="evenodd" d="M18.5158 3.95022L17.0528 1.06723L16.6685 0.316101L16.3062 1.07142L0 33.2263H3.67032L18.5158 3.95022ZM26.3204 26.5858L18.4795 11.1237L20.3151 7.5037L21.3682 9.5813L21.3698 9.57811L33.3613 33.2262H29.691L26.3236 26.5858H26.3204Z" fill="white"/>
<path fill-rule="evenodd" clip-rule="evenodd" d="M63.7165 26.7903H63.7069L68.8985 33.3113H64.6013L58.0322 25.0585L58.0371 25.0517L53.4939 19.3446L42.3762 33.3113H38.0791L64.3415 0.317688H68.6386L55.6414 16.6452L63.7165 26.7903Z" fill="white"/>
<path d="M49.4837 14.2636L38.3795 0.316101H42.6766L51.6318 11.565L49.4837 14.2636Z" fill="white"/>
<path fill-rule="evenodd" clip-rule="evenodd" d="M104.985 33.4016V29.9716H85.131V3.71009H104.985V0.315918H84.6969L84.6664 0.320842C84.1853 0.398289 83.7362 0.582163 83.3449 0.847069L83.3441 0.847589C82.8642 1.17399 82.4678 1.62388 82.1971 2.15353L82.1962 2.15534C82.0311 2.48209 81.9125 2.84143 81.8514 3.22005L81.8511 3.22211C81.8217 3.40961 81.8049 3.60436 81.8049 3.80431V29.9132C81.8049 30.0964 81.8177 30.279 81.846 30.4585C81.8777 30.6694 81.9276 30.8734 81.9918 31.0683L81.9923 31.0697C82.3966 32.284 83.4165 33.1953 84.6663 33.3966L84.6969 33.4016H104.985ZM128.523 33.4016H108.229V29.9716H128.089V3.71009H108.229V0.315918H128.523L128.553 0.320842C129.034 0.398289 129.483 0.582164 129.875 0.84707L129.875 0.847588C130.355 1.17399 130.752 1.62388 131.022 2.15353L131.023 2.15533C131.188 2.48209 131.307 2.84143 131.368 3.22005L131.368 3.22211C131.398 3.40961 131.415 3.60436 131.415 3.80431V29.9132C131.415 30.0965 131.402 30.2792 131.374 30.4588C131.342 30.6696 131.292 30.8735 131.228 31.0683L131.227 31.0697C130.823 32.284 129.803 33.1953 128.553 33.3966L128.523 33.4016ZM123.334 18.3552H92.5256L90.0691 15.2676H120.877L123.334 18.3552ZM120.688 15.6879L120.688 15.6881H90.9275L92.7151 17.9349H92.7149L90.9272 15.6879H120.688Z" fill="white"/>
<path d="M139.683 8.83296V33.3091H136.44V0L160.265 29.929L160.284 29.9549L160.286 29.9568L162.889 33.3091H159.06L143.936 14.3125L139.683 8.83296Z" fill="white"/>
<path d="M159.756 24.0275V4.39526L163 0.318689V28.1101L159.756 24.0275Z" fill="white"/>
</svg>
