<svg width="472" height="472" viewBox="0 0 472 472" fill="none" xmlns="http://www.w3.org/2000/svg">
<g clip-path="url(#clip0_7215_13)">
<path d="M467 0H5C2.23858 0 0 2.23858 0 5V467C0 469.761 2.23858 472 5 472H467C469.761 472 472 469.761 472 467V5C472 2.23858 469.761 0 467 0Z" fill="black"/>
<path d="M66.2168 335.663V335.701L67.4083 338.931C67.2714 338.555 66.8286 337.412 66.2168 335.663Z" fill="#69C9D0"/>
<path d="M152.38 273.695C154.072 259.691 159.815 251.851 170.638 243.814C186.125 232.928 205.469 239.085 205.469 239.085V202.556C210.173 202.435 214.878 202.714 219.528 203.389V250.399C219.528 250.399 200.19 244.241 184.704 255.132C173.886 263.164 168.131 271.011 166.446 285.015C166.393 292.619 167.82 302.559 174.392 311.154C172.766 310.32 171.11 309.371 169.423 308.306C154.947 298.585 152.31 284.002 152.38 273.695ZM299.404 135.013C288.75 123.339 284.721 111.553 283.265 103.273H296.666C296.666 103.273 293.994 124.982 313.468 146.332L313.739 146.619C308.49 143.317 303.677 139.42 299.404 135.013ZM363.961 168.109V214.173C363.961 214.173 346.861 213.504 334.205 210.284C316.533 205.78 305.176 198.874 305.176 198.874C305.176 198.874 297.33 193.95 296.696 193.607V288.729C296.696 294.026 295.245 307.253 290.823 318.285C285.05 332.718 276.142 342.19 274.503 344.126C274.503 344.126 263.668 356.931 244.552 365.555C227.322 373.333 212.194 373.136 207.672 373.333C207.672 373.333 181.521 374.369 157.989 359.076C152.9 355.705 148.15 351.887 143.8 347.672L143.918 347.756C167.456 363.049 193.601 362.013 193.601 362.013C198.129 361.817 213.256 362.013 230.481 354.235C249.58 345.612 260.432 332.807 260.432 332.807C262.053 330.871 271.003 321.398 276.752 306.961C281.162 295.934 282.625 282.701 282.625 277.405V182.293C283.259 182.642 291.099 187.566 291.099 187.566C291.099 187.566 302.463 194.479 320.134 198.976C332.795 202.196 349.891 202.866 349.891 202.866V166.769C355.74 168.08 360.726 168.435 363.961 168.109Z" fill="#EE1D52"/>
<path d="M349.901 166.769V202.854C349.901 202.854 332.805 202.184 320.144 198.965C302.473 194.462 291.109 187.555 291.109 187.555C291.109 187.555 283.269 182.631 282.635 182.281V277.416C282.635 282.713 281.184 295.945 276.762 306.972C270.989 321.41 262.08 330.882 260.442 332.818C260.442 332.818 249.601 345.623 230.491 354.247C213.266 362.025 198.139 361.828 193.611 362.025C193.611 362.025 167.466 363.061 143.928 347.768L143.81 347.684C141.325 345.277 138.986 342.736 136.804 340.074C129.293 330.916 124.689 320.086 123.532 316.996V316.957C121.67 311.588 117.759 298.692 118.294 286.202C119.239 264.166 126.991 250.641 129.041 247.252C134.469 238.013 141.529 229.745 149.906 222.819C157.299 216.842 165.678 212.086 174.7 208.747C184.454 204.827 194.898 202.725 205.474 202.556V239.085C205.474 239.085 186.129 232.951 170.648 243.814C159.825 251.851 154.082 259.691 152.39 273.695C152.32 284.002 154.957 298.585 169.421 308.312C171.108 309.381 172.764 310.33 174.39 311.159C176.916 314.444 179.992 317.307 183.492 319.63C197.622 328.575 209.461 329.199 224.601 323.39C234.696 319.507 242.295 310.754 245.819 301.056C248.033 295 248.004 288.904 248.004 282.6V103.273H283.24C284.696 111.553 288.725 123.339 299.378 135.013C303.651 139.42 308.465 143.317 313.713 146.619C315.264 148.223 323.192 156.154 333.369 161.022C338.631 163.539 344.179 165.467 349.901 166.769Z" fill="white"/>
<path d="M174.696 208.746C165.674 212.086 157.295 216.842 149.902 222.818C141.522 229.76 134.463 238.045 129.042 247.302C126.993 250.68 119.241 264.217 118.295 286.252C117.761 298.742 121.672 311.638 123.534 317.007V317.046C124.708 320.109 129.295 330.938 136.806 340.124C138.988 342.787 141.327 345.328 143.812 347.734C135.85 342.455 128.749 336.075 122.741 328.799C115.294 319.721 110.702 309.004 109.504 305.84C109.502 305.817 109.502 305.794 109.504 305.773V305.733C107.636 300.369 103.713 287.468 104.259 274.962C105.205 252.926 112.957 239.4 115.007 236.012C120.426 226.753 127.485 218.468 135.866 211.528C143.257 205.548 151.637 200.792 160.661 197.456C166.289 195.217 172.153 193.567 178.15 192.531C187.187 191.019 196.418 190.887 205.499 192.143V202.555C194.914 202.721 184.459 204.823 174.696 208.746Z" fill="#69C9D0"/>
<path d="M283.262 103.273H248.025V282.606C248.025 288.909 248.025 294.989 245.841 301.061C242.283 310.755 234.712 319.506 224.623 323.391C209.478 329.222 197.639 328.575 183.515 319.631C180.008 317.317 176.924 314.464 174.389 311.188C186.422 317.339 197.192 317.232 210.534 312.1C220.618 308.215 228.2 299.463 231.746 289.765C233.966 283.709 233.937 277.613 233.937 271.314V91.9482H282.592C282.592 91.9482 282.047 96.406 283.262 103.273ZM349.893 156.789V166.769C344.182 165.465 338.645 163.537 333.391 161.022C323.214 156.153 315.285 148.223 313.735 146.619C315.534 147.751 317.401 148.781 319.326 149.703C331.7 155.624 343.885 157.392 349.893 156.789Z" fill="#69C9D0"/>
</g>
<defs>
<clipPath id="clip0_7215_13">
<rect width="472" height="472" rx="100" fill="white"/>
</clipPath>
</defs>
</svg>
