<svg width="19" height="19" viewBox="0 0 19 19" fill="none" xmlns="http://www.w3.org/2000/svg">
<path d="M17.4167 7.91666V10.2917C17.4167 13.4583 15.8334 15.0417 12.6667 15.0417H12.2709C12.0255 15.0417 11.788 15.1604 11.6375 15.3583L10.45 16.9417C9.92754 17.6383 9.07254 17.6383 8.55004 16.9417L7.36254 15.3583C7.23587 15.1842 6.94296 15.0417 6.72921 15.0417H6.33337C3.16671 15.0417 1.58337 14.25 1.58337 10.2917V6.33333C1.58337 3.16666 3.16671 1.58333 6.33337 1.58333H11.0834" stroke="#FF0000" stroke-width="1.5" stroke-miterlimit="10" stroke-linecap="round" stroke-linejoin="round"/>
<path d="M15.4375 5.54166C16.5306 5.54166 17.4167 4.65556 17.4167 3.56249C17.4167 2.46943 16.5306 1.58333 15.4375 1.58333C14.3445 1.58333 13.4584 2.46943 13.4584 3.56249C13.4584 4.65556 14.3445 5.54166 15.4375 5.54166Z" stroke="#FF0000" stroke-width="1.5" stroke-linecap="round" stroke-linejoin="round"/>
<path d="M12.6638 8.70833H12.6709" stroke="#FF0000" stroke-width="2" stroke-linecap="round" stroke-linejoin="round"/>
<path d="M9.49647 8.70833H9.50358" stroke="#FF0000" stroke-width="2" stroke-linecap="round" stroke-linejoin="round"/>
<path d="M6.32898 8.70833H6.3361" stroke="#FF0000" stroke-width="2" stroke-linecap="round" stroke-linejoin="round"/>
</svg>
